<?xml version="1.0" encoding="iso-8859-1"?>
<!-- Generator: Adobe Illustrator 19.0.0, SVG Export Plug-In . SVG Version: 6.00 Build 0)  -->
<svg xmlns="http://www.w3.org/2000/svg" xmlns:xlink="http://www.w3.org/1999/xlink" version="1.1" id="Capa_1" x="0px" y="0px" width="89.07px" height="89.07px" viewBox="0 0 511 511" style="enable-background:new 0 0 511 511;" xml:space="preserve">
<g>
	<path d="M471.5,32h-432C17.72,32,0,49.72,0,71.5v368C0,461.28,17.72,479,39.5,479h432c21.78,0,39.5-17.72,39.5-39.5v-368   C511,49.72,493.28,32,471.5,32z M39.5,47h432c13.509,0,24.5,10.991,24.5,24.5V360h-98.234c-3.138-9.29-11.93-16-22.266-16h-240   c-10.336,0-19.128,6.71-22.266,16H15V71.5C15,57.991,25.991,47,39.5,47z M127,367.5c0-4.687,3.813-8.5,8.5-8.5h240   c4.687,0,8.5,3.813,8.5,8.5v48c0,4.687-3.813,8.5-8.5,8.5h-240c-4.687,0-8.5-3.813-8.5-8.5V367.5z M471.5,464h-432   C25.991,464,15,453.009,15,439.5V375h97v40.5c0,12.958,10.542,23.5,23.5,23.5h240c12.958,0,23.5-10.542,23.5-23.5V375h97v64.5   C496,453.009,485.009,464,471.5,464z" fill="#FFFFFF"/>
	<path d="M63.5,319h208c12.958,0,23.5-10.542,23.5-23.5v-200c0-12.958-10.542-23.5-23.5-23.5h-208C50.542,72,40,82.542,40,95.5v200   C40,308.458,50.542,319,63.5,319z M55,95.5c0-4.687,3.813-8.5,8.5-8.5h208c4.687,0,8.5,3.813,8.5,8.5v200   c0,4.687-3.813,8.5-8.5,8.5h-208c-4.687,0-8.5-3.813-8.5-8.5V95.5z" fill="#FFFFFF"/>
	<path d="M343.5,319h104c12.958,0,23.5-10.542,23.5-23.5v-104c0-12.958-10.542-23.5-23.5-23.5h-104c-12.958,0-23.5,10.542-23.5,23.5   v104C320,308.458,330.542,319,343.5,319z M335,191.5c0-4.687,3.813-8.5,8.5-8.5h104c4.687,0,8.5,3.813,8.5,8.5v104   c0,4.687-3.813,8.5-8.5,8.5h-104c-4.687,0-8.5-3.813-8.5-8.5V191.5z" fill="#FFFFFF"/>
	<path d="M343.5,151h104c12.958,0,23.5-10.542,23.5-23.5v-32c0-12.958-10.542-23.5-23.5-23.5h-104C330.542,72,320,82.542,320,95.5   v32C320,140.458,330.542,151,343.5,151z M335,95.5c0-4.687,3.813-8.5,8.5-8.5h104c4.687,0,8.5,3.813,8.5,8.5v32   c0,4.687-3.813,8.5-8.5,8.5h-104c-4.687,0-8.5-3.813-8.5-8.5V95.5z" fill="#FFFFFF"/>
	<path d="M359.5,119h72c4.142,0,7.5-3.358,7.5-7.5s-3.358-7.5-7.5-7.5h-72c-4.142,0-7.5,3.358-7.5,7.5S355.358,119,359.5,119z" fill="#FFFFFF"/>
	<path d="M359.5,215h8c4.142,0,7.5-3.358,7.5-7.5s-3.358-7.5-7.5-7.5h-8c-4.142,0-7.5,3.358-7.5,7.5S355.358,215,359.5,215z" fill="#FFFFFF"/>
	<path d="M391.5,215h8c4.142,0,7.5-3.358,7.5-7.5s-3.358-7.5-7.5-7.5h-8c-4.142,0-7.5,3.358-7.5,7.5S387.358,215,391.5,215z" fill="#FFFFFF"/>
	<path d="M423.5,215h8c4.142,0,7.5-3.358,7.5-7.5s-3.358-7.5-7.5-7.5h-8c-4.142,0-7.5,3.358-7.5,7.5S419.358,215,423.5,215z" fill="#FFFFFF"/>
	<path d="M359.5,239h8c4.142,0,7.5-3.358,7.5-7.5s-3.358-7.5-7.5-7.5h-8c-4.142,0-7.5,3.358-7.5,7.5S355.358,239,359.5,239z" fill="#FFFFFF"/>
	<path d="M391.5,239h8c4.142,0,7.5-3.358,7.5-7.5s-3.358-7.5-7.5-7.5h-8c-4.142,0-7.5,3.358-7.5,7.5S387.358,239,391.5,239z" fill="#FFFFFF"/>
	<path d="M423.5,239h8c4.142,0,7.5-3.358,7.5-7.5s-3.358-7.5-7.5-7.5h-8c-4.142,0-7.5,3.358-7.5,7.5S419.358,239,423.5,239z" fill="#FFFFFF"/>
	<path d="M359.5,263h8c4.142,0,7.5-3.358,7.5-7.5s-3.358-7.5-7.5-7.5h-8c-4.142,0-7.5,3.358-7.5,7.5S355.358,263,359.5,263z" fill="#FFFFFF"/>
	<path d="M391.5,263h8c4.142,0,7.5-3.358,7.5-7.5s-3.358-7.5-7.5-7.5h-8c-4.142,0-7.5,3.358-7.5,7.5S387.358,263,391.5,263z" fill="#FFFFFF"/>
	<path d="M423.5,263h8c4.142,0,7.5-3.358,7.5-7.5s-3.358-7.5-7.5-7.5h-8c-4.142,0-7.5,3.358-7.5,7.5S419.358,263,423.5,263z" fill="#FFFFFF"/>
	<path d="M359.5,287h8c4.142,0,7.5-3.358,7.5-7.5s-3.358-7.5-7.5-7.5h-8c-4.142,0-7.5,3.358-7.5,7.5S355.358,287,359.5,287z" fill="#FFFFFF"/>
	<path d="M391.5,287h8c4.142,0,7.5-3.358,7.5-7.5s-3.358-7.5-7.5-7.5h-8c-4.142,0-7.5,3.358-7.5,7.5S387.358,287,391.5,287z" fill="#FFFFFF"/>
	<path d="M423.5,287h8c4.142,0,7.5-3.358,7.5-7.5s-3.358-7.5-7.5-7.5h-8c-4.142,0-7.5,3.358-7.5,7.5S419.358,287,423.5,287z" fill="#FFFFFF"/>
	<path d="M79.5,279h176c4.142,0,7.5-3.358,7.5-7.5v-152c0-4.142-3.358-7.5-7.5-7.5h-176c-4.142,0-7.5,3.358-7.5,7.5v152   C72,275.642,75.358,279,79.5,279z M87,127h161v137H87V127z" fill="#FFFFFF"/>
	<path d="M159.5,399h192c4.142,0,7.5-3.358,7.5-7.5s-3.358-7.5-7.5-7.5h-192c-4.142,0-7.5,3.358-7.5,7.5S155.358,399,159.5,399z" fill="#FFFFFF"/>
	<path d="M119.5,184c-4.142,0-7.5,3.358-7.5,7.5v8c0,4.142,3.358,7.5,7.5,7.5s7.5-3.358,7.5-7.5v-8   C127,187.358,123.642,184,119.5,184z" fill="#FFFFFF"/>
	<path d="M151.5,184c-4.142,0-7.5,3.358-7.5,7.5v8c0,4.142,3.358,7.5,7.5,7.5s7.5-3.358,7.5-7.5v-8   C159,187.358,155.642,184,151.5,184z" fill="#FFFFFF"/>
	<path d="M183.5,184c-4.142,0-7.5,3.358-7.5,7.5v8c0,4.142,3.358,7.5,7.5,7.5s7.5-3.358,7.5-7.5v-8   C191,187.358,187.642,184,183.5,184z" fill="#FFFFFF"/>
	<path d="M215.5,184c-4.142,0-7.5,3.358-7.5,7.5v8c0,4.142,3.358,7.5,7.5,7.5s7.5-3.358,7.5-7.5v-8   C223,187.358,219.642,184,215.5,184z" fill="#FFFFFF"/>
</g>
<g>
</g>
<g>
</g>
<g>
</g>
<g>
</g>
<g>
</g>
<g>
</g>
<g>
</g>
<g>
</g>
<g>
</g>
<g>
</g>
<g>
</g>
<g>
</g>
<g>
</g>
<g>
</g>
<g>
</g>
</svg>
