<?xml version="1.0" encoding="iso-8859-1"?>
<!-- Sayona LLC. Icons made by spovv (http://www.flaticon.com/authors/spovv) from http://www.flaticon.com. Licensed under Creative Commons 3.0 (http://creativecommons.org/licenses/by/3.0/)  -->
<!DOCTYPE svg PUBLIC "-//W3C//DTD SVG 1.1//EN" "http://www.w3.org/Graphics/SVG/1.1/DTD/svg11.dtd">
<svg version="1.1" id="Capa_1" xmlns="http://www.w3.org/2000/svg" xmlns:xlink="http://www.w3.org/1999/xlink" x="0px" y="0px"
	 width="73.736px" height="73.736px" viewBox="0 0 73.736 73.736" style="enable-background:new 0 0 73.736 73.736;"
	 xml:space="preserve">
<g>
	<g id="_x32_7_1_">
		<g>
			<path d="M46.082,12.29H23.047v-1.536c0-0.85-0.687-1.536-1.535-1.536h-4.607V1.536C16.904,0.688,16.218,0,15.368,0H9.226
				C8.377,0,7.691,0.688,7.691,1.536V12.29H3.083c-0.848,0-1.535,0.687-1.535,1.536v51.462c0,4.659,3.788,8.448,8.446,8.448h29.178
				c4.658,0,8.446-3.789,8.446-8.448V13.826C47.618,12.977,46.931,12.29,46.082,12.29z M35.332,15.362h3.071v6.145h-3.071V15.362z
				 M29.19,15.362h3.071v6.145H29.19V15.362z M23.047,15.362h3.071v6.145h-3.071V15.362z M16.904,12.29h3.071v9.217h-3.071V12.29z
				 M10.762,3.073h3.071v12.289h-3.071V3.073z M10.762,18.435h3.071v3.072h-3.071V18.435z M44.547,65.288
				c0,2.964-2.412,5.377-5.375,5.377H9.994c-2.964,0-5.375-2.413-5.375-5.377V15.362H7.69v7.681c0,0.85,0.687,1.536,1.535,1.536
				h30.714c0.85,0,1.536-0.687,1.536-1.536v-7.681h3.071L44.547,65.288L44.547,65.288z M38.403,46.086H10.762
				c-0.849,0-1.536,0.688-1.536,1.536s0.688,1.536,1.536,1.536h27.644c0.849,0,1.535-0.688,1.535-1.536S39.253,46.086,38.403,46.086
				z M38.403,39.941H10.762c-0.849,0-1.536,0.687-1.536,1.535c0,0.85,0.688,1.537,1.536,1.537h27.644
				c0.849,0,1.535-0.688,1.535-1.537S39.253,39.941,38.403,39.941z M38.403,52.23H10.762c-0.849,0-1.536,0.687-1.536,1.535
				c0,0.85,0.688,1.536,1.536,1.536h27.644c0.849,0,1.535-0.687,1.535-1.536C39.94,52.917,39.253,52.23,38.403,52.23z
				 M70.653,46.086H55.296c-0.85,0-1.535,0.688-1.535,1.536v24.579c0,0.849,0.688,1.535,1.535,1.535h15.357
				c0.849,0,1.535-0.688,1.535-1.535V47.622C72.188,46.771,71.502,46.086,70.653,46.086z M69.116,70.665H56.832V55.303h12.284
				V70.665z M69.116,52.23H56.832v-3.072h12.284V52.23z M63.229,45.294c4.096,0,7.424-3.33,7.424-7.426
				c0-3.619-5.194-10.147-6.235-11.42l-1.188-1.452l-1.188,1.452c-1.041,1.271-6.232,7.801-6.232,11.42
				C55.81,41.964,59.139,45.294,63.229,45.294z M63.229,29.914c2.088,2.784,4.354,6.394,4.354,7.954
				c0,2.399-1.953,4.354-4.354,4.354c-2.399,0-4.349-1.953-4.349-4.354C58.881,36.311,61.146,32.701,63.229,29.914z"/>
		</g>
	</g>
</g>
<g>
</g>
<g>
</g>
<g>
</g>
<g>
</g>
<g>
</g>
<g>
</g>
<g>
</g>
<g>
</g>
<g>
</g>
<g>
</g>
<g>
</g>
<g>
</g>
<g>
</g>
<g>
</g>
<g>
</g>
</svg>
