<?xml version='1.0' encoding='iso-8859-1'?>
<!DOCTYPE svg PUBLIC '-//W3C//DTD SVG 1.1//EN' 'http://www.w3.org/Graphics/SVG/1.1/DTD/svg11.dtd'>
<svg version="1.1" xmlns="http://www.w3.org/2000/svg" width="89.07px" height="89.07px" viewBox="0 0 460 460" xmlns:xlink="http://www.w3.org/1999/xlink" enable-background="new 0 0 460 460">
  <path d="m419.473,40.527c-26.134-26.134-60.881-40.527-97.841-40.527-36.959,0-71.707,14.393-97.841,40.527-47.226,47.226-53.11,120.379-17.654,174.067l-198.018,198.018c-10.826,10.826-10.826,28.442 0,39.269 5.414,5.413 12.524,8.119 19.635,8.119s14.221-2.707 19.635-8.119l198.018-198.018c23.023,15.204 49.624,22.808 76.226,22.808 35.433,0 70.866-13.487 97.841-40.462 26.133-26.135 40.526-60.882 40.526-97.841 0-36.96-14.393-71.707-40.527-97.841zm11.598,53.077c-7.038-5.681-14.643-10.484-22.528-14.105-22.548-10.352-45.613-11.046-66.698-2.009-0.041,0.018-0.083,0.035-0.124,0.054-18.412,8.183-25.028,22-27.115,36.745-3.967-7.072-5.505-15.336-2.713-24.43 12.106-36.103 55.654-48.386 89.099-39.058 0.003,0.001 0.007,0.001 0.01,0.002 1.426,1.295 2.826,2.628 4.197,3.999 11.287,11.288 20.006,24.459 25.872,38.802zm-107.281,162.888c-17.106-0.002-36.372-3.686-52.176-11.049 11.82-0.605 24.476-2.91 37.063-8.304 0.068-0.029 0.135-0.058 0.201-0.089 22.646-10.294 38.346-27.445 44.218-48.301 3.473-11.644 3.57-25.785-1.672-37.513 6.521,3.318 11.964,8.915 14.507,18.072 10.078,35.992-13.782,69.584-42.141,87.184zm-84.648-33.51c-12.724-12.724-23.003-28.702-28.699-44.616 13.23,11.628 27.542,19.48 43.227,23.758 0.047,0.013 0.095,0.026 0.142,0.038 6.185,1.59 12.675,2.358 19.168,2.358 16.102,0 32.209-4.727 43.644-13.361 9.71-7.332 15.714-16.937 17.645-28.046 1.727,6.209 1.383,13.523-0.536,19.922-0.018,0.06-0.035,0.119-0.052,0.179-5.391,19.253-20.929,29.88-33.057,35.412-17.19,7.342-36.213,8.686-61.482,4.356zm126.305-194.432c-31.597,3.998-61.754,22.067-72.74,55.025-0.022,0.067-0.044,0.133-0.065,0.2-4.93,15.884-1.927,32.001 7.626,45.585-8.778-1.936-16.938-10.808-20.823-20.441-12.986-34.818 9.305-71.597 36.935-88.612 1.745-0.076 3.495-0.12 5.253-0.12 15.252,0.001 30.06,2.879 43.814,8.363zm-130.027,28.995c11.324-11.324 27.19-22.804 41.587-28.67-5.384,6.863-9.942,14.329-13.461,22.214-9.723,21.783-10.748,44.268-2.965,65.023 0.026,0.069 0.052,0.137 0.079,0.205 6.121,15.303 19.789,29.61 36.075,32.914-2.386,0.937-4.933,1.522-7.727,1.625-16.85,0.621-32.391-8.212-42.641-24.247-12.54-20.963-16.116-43.565-10.947-69.064zm-21.871,33.031c1.64,16.401 6.835,31.964 15.577,46.535 0.046,0.076 0.092,0.151 0.14,0.226 13.989,21.982 36.607,34.583 60.49,33.693 9.504-0.352 17.239-3.525 23.776-8.046-1.563,4.642-4.593,8.684-9.072,12.066-11.206,8.461-29.928,11.574-45.553,7.579-20.991-5.745-38.614-19.083-55.372-41.915-0.335-17.088 3.004-34.233 10.014-50.138zm-180.436,347.03c-2.955,2.956-7.763,2.955-10.719,0-2.955-2.956-2.955-7.764 0-10.719l196.187-196.187c1.678,1.871 3.412,3.71 5.211,5.508 1.798,1.798 3.637,3.532 5.508,5.211l-196.187,196.187zm330.183-188.651c5.521-6.414 10.298-13.306 14.126-20.504 11.157-20.979 13.906-43.312 7.955-64.567-5.2-18.722-18.986-31.039-38.04-35.501 11.217-5.638 27.278-1.405 38.024,7.293 25.546,21.039 27.981,58.03 22.267,83.748-0.797,0.845-1.604,1.683-2.429,2.507-12.282,12.284-26.613,21.29-41.903,27.024zm66.702-63.289c-0.457-5.639-1.296-11.166-2.527-16.474-4.686-20.206-14.81-37.183-29.343-49.152-17.414-14.097-43.375-19.66-62.381-8.342 2.055-6.971 6.21-12.152 14.112-15.68 34.349-14.673 71.776,8.176 89.841,37.29 0.07,1.681 0.113,3.366 0.113,5.059 0,16.55-3.385,32.577-9.815,47.299z"/>
</svg>
