<?xml version="1.0" encoding="iso-8859-1"?>
<!-- Sayona LLC. Icons made by Freepik (http://www.freepik.com) from Flaticon (http://www.flaticon.com). Licensed under Creative Commons BY 3.0 (http://creativecommons.org/licenses/by/3.0/)  -->
<!DOCTYPE svg PUBLIC "-//W3C//DTD SVG 1.1//EN" "http://www.w3.org/Graphics/SVG/1.1/DTD/svg11.dtd">
<svg version="1.1" id="Capa_1" xmlns="http://www.w3.org/2000/svg" xmlns:xlink="http://www.w3.org/1999/xlink" x="0px" y="0px"
	 width="89.07px" height="89.07px" viewBox="0 0 307.09 307.09" style="enable-background:new 0 0 307.09 307.09;" xml:space="preserve">
<g>
	<path d="M253.641,272.134c17.922-48.311,17.922-188.87,0.001-237.178L258.9,7.113c0.332-1.755-0.136-3.566-1.276-4.942
		C256.484,0.796,254.791,0,253.005,0H54.091c-1.786,0-3.479,0.796-4.619,2.171c-1.14,1.375-1.608,3.187-1.276,4.941l5.254,27.843
		C35.527,83.261,35.527,223.82,53.448,272.133l-5.259,27.844c-0.332,1.755,0.136,3.566,1.276,4.942
		c1.14,1.375,2.833,2.171,4.619,2.171h198.914c0.008,0,0.015,0,0.02,0c3.315,0,6-2.687,6-6c0-0.556-0.075-1.094-0.216-1.604
		L253.641,272.134z M245.766,12l-3.306,17.502H64.631L61.329,12H245.766z M63.856,41.502h179.376
		c15.81,46.859,15.81,177.222,0,224.086H63.857C48.048,218.724,48.048,88.361,63.856,41.502z M61.324,295.09l3.306-17.502h177.829
		l3.302,17.502H61.324z"/>
	<path d="M90.81,201.64c0.017,0.003,0.033,0.005,0.05,0.009c0.117,0.016,0.229,0.041,0.348,0.056
		c0.467,0.058,0.945,0.086,1.465,0.086c4.005,0,9.993-1.793,19.434-4.719c9.128-2.83,19.475-6.037,26.243-6.417
		c0.66-0.037,1.313-0.054,1.964-0.054c5.491,0,10.985,1.275,16.802,2.626c6.976,1.619,14.882,3.455,24.263,3.455
		c7.653,0,26.804-1.405,39.301-14.426c7.393-7.702,10.886-17.837,10.382-30.123c-1.382-33.629-37.866-48.176-56.172-48.176
		c-27.818,0-43.311,22.911-48.825,37.854c-37.452,5.466-50.081,35.789-50.081,43.809C75.981,194.24,81.655,200.341,90.81,201.64z
		 M174.888,115.957c12.559,0,43.108,10.551,44.182,36.668c0.365,8.895-2.007,16.068-7.049,21.321
		c-9.561,9.961-25.872,10.735-30.644,10.735c-8.006,0-14.891-1.599-21.549-3.145c-6.219-1.443-12.649-2.937-19.516-2.937
		c-0.883,0-1.77,0.025-2.637,0.073c-5.018,0.281-11.092,1.668-17.285,3.393c9.676-13.714,14.996-30.023,15.913-32.979
		c0.009-0.029,0.014-0.059,0.023-0.089c0.006-0.019,0.016-0.036,0.02-0.055C136.731,147.598,146.097,115.957,174.888,115.957z
		 M121.35,155c-5.723,13.707-16.432,32.816-29.379,34.684c-3.983-0.712-3.989-2.711-3.99-4.019
		C88.15,182.495,95.866,161.634,121.35,155z"/>
</g>
<g>
</g>
<g>
</g>
<g>
</g>
<g>
</g>
<g>
</g>
<g>
</g>
<g>
</g>
<g>
</g>
<g>
</g>
<g>
</g>
<g>
</g>
<g>
</g>
<g>
</g>
<g>
</g>
<g>
</g>
</svg>
