<?xml version="1.0" encoding="iso-8859-1"?>
<!-- Generator: Adobe Illustrator 18.0.0, SVG Export Plug-In . SVG Version: 6.00 Build 0)  -->
<!DOCTYPE svg PUBLIC "-//W3C//DTD SVG 1.1//EN" "http://www.w3.org/Graphics/SVG/1.1/DTD/svg11.dtd">
<svg version="1.1" id="Capa_1" xmlns="http://www.w3.org/2000/svg" xmlns:xlink="http://www.w3.org/1999/xlink" x="0px" y="0px"
	 width="89.07px" height="89.07px" viewBox="0 0 387 387" style="enable-background:new 0 0 387 387;" xml:space="preserve">
<g>
	<path d="M383,161.5h-13.335c-3.523-6.853-11.26-11.624-20.223-11.624s-16.7,4.771-20.223,11.624h-57.945
		c-12.595-15.197-29.379-26.4-48.096-32.161C235.496,118.948,243.5,102.271,243.5,83.5c0-29.309-20.094-49-50-49s-50,19.691-50,49
		c0,18.771,8.004,35.447,20.323,45.839c-18.716,5.76-35.501,16.964-48.096,32.161H57.782c-3.523-6.853-11.26-11.624-20.223-11.624
		s-16.7,4.771-20.223,11.624H4c-2.209,0-4,1.791-4,4v183c0,2.209,1.791,4,4,4h379c2.209,0,4-1.791,4-4v-183
		C387,163.291,385.209,161.5,383,161.5z M360.05,189.723v134.555H26.95V189.723H360.05z M349.441,157.876
		c7.859,0,14.254,5.349,14.254,11.924c0,6.574-6.395,11.923-14.254,11.923s-14.254-5.349-14.254-11.923
		C335.188,163.225,341.582,157.876,349.441,157.876z M151.5,83.5c0-24.906,16.486-41,42-41s42,16.094,42,41
		c0,27.019-18.841,49-42,49S151.5,110.519,151.5,83.5z M172.624,135.274c6.358,3.345,13.426,5.226,20.876,5.226
		c7.45,0,14.518-1.881,20.875-5.226c17.593,4.041,33.689,13.208,46.198,26.226H126.426
		C138.936,148.482,155.032,139.315,172.624,135.274z M327.196,169.5c-0.002,0.1-0.009,0.199-0.009,0.3
		c0,4.468,1.651,8.596,4.436,11.923H55.376c2.785-3.327,4.436-7.455,4.436-11.923c0-0.101-0.007-0.2-0.009-0.3H327.196z
		 M37.559,157.876c7.859,0,14.254,5.349,14.254,11.924c0,6.574-6.395,11.923-14.254,11.923s-14.254-5.349-14.254-11.923
		C23.305,163.225,29.699,157.876,37.559,157.876z M379,344.5H8v-175h7.313c-0.002,0.1-0.009,0.199-0.009,0.3
		c0,4.86,1.957,9.318,5.199,12.78c-0.939,0.732-1.553,1.861-1.553,3.143v142.555c0,2.209,1.791,4,4,4h341.1c2.209,0,4-1.791,4-4
		V185.723c0-1.282-0.615-2.411-1.553-3.143c3.242-3.462,5.199-7.919,5.199-12.78c0-0.101-0.007-0.2-0.009-0.3H379V344.5z"/>
	<path d="M144,302.5H41c-2.209,0-4,1.791-4,4s1.791,4,4,4h103c2.209,0,4-1.791,4-4S146.209,302.5,144,302.5z"/>
	<path d="M41,283.089h305c2.209,0,4-1.791,4-4s-1.791-4-4-4H41c-2.209,0-4,1.791-4,4S38.791,283.089,41,283.089z"/>
	<path d="M54.828,254.017l2.672-2.671v15.843c0,2.209,1.791,4,4,4s4-1.791,4-4v-25.5c0-1.618-0.975-3.076-2.47-3.695
		c-1.492-0.619-3.215-0.277-4.358,0.867l-9.5,9.5c-1.563,1.562-1.563,4.095,0,5.656C50.732,255.579,53.268,255.579,54.828,254.017z"
		/>
	<path d="M91.743,271.355c6.901,0,12.307-7.357,12.307-16.75s-5.405-16.75-12.307-16.75s-12.307,7.357-12.307,16.75
		S84.842,271.355,91.743,271.355z M91.743,245.855c1.756,0,4.307,3.408,4.307,8.75s-2.551,8.75-4.307,8.75s-4.307-3.408-4.307-8.75
		S89.987,245.855,91.743,245.855z"/>
	<path d="M117.619,271.355c6.901,0,12.307-7.357,12.307-16.75s-5.405-16.75-12.307-16.75c-6.9,0-12.306,7.357-12.306,16.75
		S110.719,271.355,117.619,271.355z M117.619,245.855c1.756,0,4.307,3.408,4.307,8.75s-2.551,8.75-4.307,8.75
		s-4.306-3.408-4.306-8.75S115.863,245.855,117.619,245.855z"/>
	<path d="M143.496,271.355c6.9,0,12.306-7.357,12.306-16.75s-5.405-16.75-12.306-16.75c-6.901,0-12.307,7.357-12.307,16.75
		S136.595,271.355,143.496,271.355z M143.496,245.855c1.756,0,4.306,3.408,4.306,8.75s-2.55,8.75-4.306,8.75
		s-4.307-3.408-4.307-8.75S141.74,245.855,143.496,245.855z"/>
	<path d="M182.11,271.355c6.901,0,12.307-7.357,12.307-16.75s-5.405-16.75-12.307-16.75s-12.307,7.357-12.307,16.75
		S175.209,271.355,182.11,271.355z M182.11,245.855c1.756,0,4.307,3.408,4.307,8.75s-2.551,8.75-4.307,8.75s-4.307-3.408-4.307-8.75
		S180.354,245.855,182.11,245.855z"/>
	<path d="M207.986,271.355c6.901,0,12.307-7.357,12.307-16.75s-5.405-16.75-12.307-16.75s-12.307,7.357-12.307,16.75
		S201.085,271.355,207.986,271.355z M207.986,245.855c1.756,0,4.307,3.408,4.307,8.75s-2.551,8.75-4.307,8.75
		s-4.307-3.408-4.307-8.75S206.23,245.855,207.986,245.855z"/>
	<path d="M233.862,271.355c6.901,0,12.307-7.357,12.307-16.75s-5.405-16.75-12.307-16.75s-12.307,7.357-12.307,16.75
		S226.961,271.355,233.862,271.355z M233.862,245.855c1.756,0,4.307,3.408,4.307,8.75s-2.551,8.75-4.307,8.75
		s-4.307-3.408-4.307-8.75S232.106,245.855,233.862,245.855z"/>
	<path d="M272.477,271.355c6.901,0,12.307-7.357,12.307-16.75s-5.405-16.75-12.307-16.75s-12.307,7.357-12.307,16.75
		S265.575,271.355,272.477,271.355z M272.477,245.855c1.756,0,4.307,3.408,4.307,8.75s-2.551,8.75-4.307,8.75
		s-4.307-3.408-4.307-8.75S270.721,245.855,272.477,245.855z"/>
	<path d="M298.353,271.355c6.901,0,12.307-7.357,12.307-16.75s-5.405-16.75-12.307-16.75s-12.307,7.357-12.307,16.75
		S291.451,271.355,298.353,271.355z M298.353,245.855c1.756,0,4.307,3.408,4.307,8.75s-2.551,8.75-4.307,8.75
		s-4.307-3.408-4.307-8.75S296.597,245.855,298.353,245.855z"/>
	<path d="M324.229,271.355c6.901,0,12.307-7.357,12.307-16.75s-5.405-16.75-12.307-16.75s-12.307,7.357-12.307,16.75
		S317.327,271.355,324.229,271.355z M324.229,245.855c1.756,0,4.307,3.408,4.307,8.75s-2.551,8.75-4.307,8.75
		s-4.307-3.408-4.307-8.75S322.473,245.855,324.229,245.855z"/>
	<path d="M193.5,123.934c17.608,0,31.934-14.325,31.934-31.934c0-2.209-1.791-4-4-4h-55.867c-2.209,0-4,1.791-4,4
		C161.566,109.608,175.892,123.934,193.5,123.934z M217.1,96c-1.91,11.299-11.766,19.934-23.6,19.934S171.811,107.299,169.9,96
		H217.1z"/>
</g>
<g>
</g>
<g>
</g>
<g>
</g>
<g>
</g>
<g>
</g>
<g>
</g>
<g>
</g>
<g>
</g>
<g>
</g>
<g>
</g>
<g>
</g>
<g>
</g>
<g>
</g>
<g>
</g>
<g>
</g>
</svg>
