<?xml version="1.0" encoding="iso-8859-1"?>
<!-- Generator: Adobe Illustrator 16.0.0, SVG Export Plug-In . SVG Version: 6.00 Build 0)  -->
<!DOCTYPE svg PUBLIC "-//W3C//DTD SVG 1.1//EN" "http://www.w3.org/Graphics/SVG/1.1/DTD/svg11.dtd">
<svg version="1.1" id="Capa_1" xmlns="http://www.w3.org/2000/svg" xmlns:xlink="http://www.w3.org/1999/xlink" x="0px" y="0px"
	 width="83.975px" height="83.976px" viewBox="0 0 83.975 83.976" style="enable-background:new 0 0 83.975 83.976;"
	 xml:space="preserve">
<g>
	<g id="_x32_5">
		<g>
			<path d="M59.346,31.767c-0.681-3.509-3.771-6.165-7.473-6.165h-6.814V11.053l12.125-8.248c0.7-0.477,0.883-1.431,0.406-2.133
				c-0.476-0.702-1.436-0.883-2.135-0.405L42.66,8.971c-0.421,0.285-0.673,0.759-0.673,1.27v15.361h-8.665
				c-3.682,0-6.76,2.625-7.465,6.145h-0.823c-4.201-0.001-7.617,3.417-7.617,7.68c0,0.85,0.687,1.536,1.535,1.536h4.811
				l5.954,41.693c0.108,0.759,0.756,1.319,1.521,1.319h21.5c0.765,0,1.412-0.562,1.521-1.319l5.954-41.693h4.811
				c0.851,0,1.537-0.747,1.537-1.596C66.559,35.301,63.358,31.979,59.346,31.767z M33.321,28.674h18.552
				c1.988,0,3.686,1.287,4.299,3.072h-27.15C29.636,29.961,31.332,28.674,33.321,28.674z M51.405,80.903H32.568l-5.703-39.94h30.242
				L51.405,80.903z M20.733,37.891c0.613-1.785,2.31-3.072,4.3-3.072H58.94c1.99,0,3.688,1.287,4.301,3.072H20.733z M42.18,62.302
				c5.094,0,9.239-4.144,9.239-9.241c0-5.097-4.145-9.241-9.239-9.241s-9.239,4.145-9.239,9.241
				C32.94,58.158,37.084,62.302,42.18,62.302z M42.18,46.556c3.584,0,6.5,2.92,6.5,6.505c0,3.586-2.916,6.505-6.5,6.505
				c-3.584,0-6.501-2.919-6.501-6.505C35.679,49.476,38.596,46.556,42.18,46.556z"/>
		</g>
	</g>
</g>
<g>
</g>
<g>
</g>
<g>
</g>
<g>
</g>
<g>
</g>
<g>
</g>
<g>
</g>
<g>
</g>
<g>
</g>
<g>
</g>
<g>
</g>
<g>
</g>
<g>
</g>
<g>
</g>
<g>
</g>
</svg>
